<?xml version="1.0" encoding="utf-8"?>
<svg viewBox="0 0 240 240" width="24" height="24" xmlns="http://www.w3.org/2000/svg">
  <ellipse style="fill:transparent;stroke-width:13px;stroke:#87adbd;" cx="216.834" cy="200.563" rx="80" ry="80" transform="matrix(0.999997, -0.002552, 0.002552, 0.999997, -97.140887, -112.799259)"/>
  <path d="M 113.049 106.712 Q 113.049 100.862 114.999 96.512 Q 116.949 92.162 119.874 88.712 Q 122.799 85.262 126.249 82.337 Q 129.699 79.412 132.699 76.487 Q 135.699 73.562 137.574 70.262 Q 139.449 66.962 139.449 62.612 Q 139.449 55.412 133.749 50.912 Q 128.049 46.412 117.999 46.412 Q 108.999 46.412 102.399 49.412 Q 95.799 52.412 91.149 58.262 L 80.199 50.462 Q 86.499 42.512 96.249 38.087 Q 105.999 33.662 119.049 33.662 Q 129.849 33.662 137.799 36.887 Q 145.749 40.112 150.174 46.037 Q 154.599 51.962 154.599 60.362 Q 154.599 66.662 152.649 71.162 Q 150.699 75.662 147.699 79.112 Q 144.699 82.562 141.324 85.562 Q 137.949 88.562 134.949 91.562 Q 131.949 94.562 129.999 98.162 Q 128.049 101.762 128.049 106.712 Z M 120.699 140.762 Q 116.499 140.762 113.724 137.912 Q 110.949 135.062 110.949 131.162 Q 110.949 126.962 113.724 124.262 Q 116.499 121.562 120.699 121.562 Q 124.899 121.562 127.599 124.262 Q 130.299 126.962 130.299 131.162 Q 130.299 135.062 127.599 137.912 Q 124.899 140.762 120.699 140.762 Z" style="fill: #024175;"/>
</svg>