<?xml version="1.0" encoding="iso-8859-1"?>
<!-- Generator: Adobe Illustrator 19.0.0, SVG Export Plug-In . SVG Version: 6.00 Build 0)  -->
<svg version="1.1" id="Layer_1" xmlns="http://www.w3.org/2000/svg" xmlns:xlink="http://www.w3.org/1999/xlink" x="0px" y="0px" width="128px" height="128px"
	 viewBox="0 0 496 496" style="enable-background:new 0 0 496 496;" xml:space="preserve">
<g>
	<g>
		<g>
			<path d="M293.512,232H304c13.232,0,24-10.768,24-24v-8h16v-16h-18.8l96-184H283.152L248,67.376L212.848,0H74.8l96,184H152v16h16
				v8c0,13.232,10.768,24,24,24h10.488C149.848,250.784,112,300.992,112,360c0,74.992,61.008,136,136,136s136-61.008,136-136
				C384,300.992,346.152,250.784,293.512,232z M394.8,16L308,182.368l-10.976-21.04L372.848,16H394.8z M354.8,16L288,144.04
				L277.024,123l55.824-107H354.8z M292.848,16H314.8L268,105.704l-10.976-21.04L292.848,16z M203.152,16L290.8,184h-21.952
				L181.2,16H203.152z M101.2,16h21.952l26.976,51.696l14.184-7.4L141.2,16h21.952L250.8,184h-21.952L172.656,76.304l-14.184,7.4
				L210.8,184h-21.952L101.2,16z M192,216c-4.408,0-8-3.592-8-8v-8h128v8c0,4.408-3.592,8-8,8H192z M248,480
				c-66.168,0-120-53.832-120-120s53.832-120,120-120s120,53.832,120,120S314.168,480,248,480z"/>
			<path d="M248,256c-57.344,0-104,46.656-104,104s46.656,104,104,104s104-46.656,104-104S305.344,256,248,256z M248,448
				c-48.52,0-88-39.48-88-88c0-48.52,39.48-88,88-88s88,39.48,88,88C336,408.52,296.52,448,248,448z"/>
		</g>
	</g>
</g>
<g>
</g>
<g>
</g>
<g>
</g>
<g>
</g>
<g>
</g>
<g>
</g>
<g>
</g>
<g>
</g>
<g>
</g>
<g>
</g>
<g>
</g>
<g>
</g>
<g>
</g>
<g>
</g>
<g>
</g>
</svg>
