<?xml version="1.0" standalone="no"?>
<!DOCTYPE svg PUBLIC "-//W3C//DTD SVG 20010904//EN"
 "http://www.w3.org/TR/2001/REC-SVG-20010904/DTD/svg10.dtd">
<svg version="1.0" xmlns="http://www.w3.org/2000/svg"
 width="1400.000000pt" height="1400.000000pt" viewBox="0 0 1400.000000 1400.000000"
 preserveAspectRatio="xMidYMid meet">
<metadata>
Created by potrace 1.14, written by Peter Selinger 2001-2017
</metadata>
<g transform="translate(0.000000,1400.000000) scale(0.100000,-0.100000)"
fill="#000000" stroke="none">
<path d="M4314 13973 c4 -16 12 -46 19 -68 6 -22 11 -44 12 -50 0 -5 5 -14 12
-20 6 -5 52 -134 102 -285 50 -151 95 -284 100 -295 5 -11 31 -87 59 -170 75
-224 257 -729 374 -1040 52 -139 95 -246 192 -485 13 -30 40 -100 61 -155 20
-55 50 -127 66 -160 16 -33 52 -121 80 -195 28 -74 60 -152 70 -172 10 -20 44
-103 75 -185 30 -81 71 -182 91 -223 19 -41 64 -145 98 -230 35 -85 77 -183
94 -217 17 -34 31 -70 31 -81 0 -10 3 -22 7 -26 4 -3 8 -13 9 -20 2 -14 22
-71 105 -301 21 -60 47 -148 58 -195 10 -47 24 -96 30 -110 l12 -25 212 1
c198 0 214 -1 235 -20 17 -15 22 -30 22 -68 0 -66 -26 -89 -133 -118 -45 -12
-90 -29 -101 -38 -10 -10 -20 -16 -22 -14 -2 1 -5 2 -6 1 -2 0 -13 -2 -25 -5
-13 -2 -33 -6 -45 -8 -13 -3 -23 -5 -23 -6 0 -1 -11 -3 -25 -6 -47 -8 -227
-54 -270 -69 -24 -8 -45 -13 -48 -10 -3 3 -10 1 -16 -4 -6 -5 -71 -27 -143
-50 -73 -22 -142 -45 -153 -51 -11 -6 -25 -8 -30 -5 -6 3 -10 1 -10 -4 0 -6
-6 -11 -13 -11 -7 0 -60 -19 -118 -41 -57 -23 -110 -42 -116 -42 -7 0 -13 -4
-13 -9 0 -4 -7 -8 -16 -8 -9 0 -37 -11 -63 -24 -25 -13 -68 -35 -96 -49 -27
-14 -106 -53 -175 -87 -296 -146 -585 -342 -896 -610 -29 -25 -84 -67 -122
-94 -38 -28 -76 -60 -83 -72 -8 -12 -73 -84 -146 -160 -122 -130 -195 -214
-235 -274 -41 -60 -80 -113 -97 -131 -64 -69 -292 -455 -411 -696 -273 -554
-381 -907 -459 -1508 -17 -129 -21 -223 -22 -525 -1 -272 10 -444 42 -680 30
-218 107 -501 196 -719 19 -47 36 -90 37 -96 3 -17 48 -138 64 -175 9 -19 16
-39 17 -45 0 -5 19 -47 43 -92 23 -46 42 -89 42 -96 0 -7 11 -24 25 -37 14
-13 25 -31 25 -41 0 -16 30 -49 30 -33 0 9 80 -123 80 -133 0 -3 9 -18 21 -34
11 -16 17 -34 13 -41 -4 -7 -4 -10 1 -6 6 6 55 -53 55 -67 0 -2 14 -24 30 -49
17 -25 37 -68 46 -95 11 -37 18 -49 29 -45 9 4 17 -1 21 -12 18 -54 30 -73 47
-76 10 -2 26 -16 35 -32 9 -16 30 -43 46 -60 15 -17 41 -49 58 -71 101 -137
368 -403 613 -611 273 -232 745 -522 1095 -674 52 -22 105 -45 118 -50 12 -6
32 -14 45 -19 12 -5 50 -20 84 -35 130 -53 270 -105 328 -121 62 -17 126 -36
276 -79 132 -39 208 -53 442 -81 386 -46 552 -53 847 -35 490 29 876 107 1302
261 75 27 139 49 143 49 13 0 415 184 495 227 93 50 271 156 298 178 9 7 75
52 146 100 277 186 621 492 820 730 160 191 371 481 436 600 18 33 48 83 65
110 32 50 52 86 158 286 85 160 210 473 267 669 8 25 16 50 19 55 3 6 11 33
17 60 6 28 23 93 38 145 48 170 107 552 121 790 26 431 -33 1084 -120 1330 -9
25 -29 98 -46 162 -40 157 -95 310 -169 473 -5 11 -23 54 -39 95 -36 92 -192
400 -221 438 -12 15 -51 80 -88 145 -37 65 -83 138 -102 163 -19 25 -62 80
-95 122 -33 42 -91 118 -129 167 -62 81 -101 125 -240 274 -65 70 -276 262
-404 368 -64 54 -124 105 -132 114 -8 9 -31 24 -50 34 -19 10 -69 43 -110 74
-75 56 -236 167 -268 186 -9 5 -44 26 -77 46 -102 63 -380 199 -545 266 -98
41 -398 149 -548 198 -100 33 -294 77 -400 91 -37 5 -55 12 -59 23 -13 46 -37
83 -94 149 -55 65 -65 73 -93 70 -27 -3 -31 -7 -32 -33 0 -16 3 -35 7 -40 14
-19 18 -64 6 -74 -8 -6 -50 -6 -122 1 -121 11 -512 14 -615 5 -36 -4 -98 -4
-137 0 l-73 6 0 51 c0 100 -76 91 777 91 l748 1 13 39 c8 22 16 51 18 65 3 13
14 49 25 80 27 75 44 131 85 290 19 74 39 139 45 145 5 5 9 19 9 31 0 13 23
96 51 186 107 345 147 480 176 593 14 55 29 105 33 110 5 6 17 44 28 85 11 41
32 118 47 170 54 189 94 342 101 385 5 28 11 51 30 100 4 11 9 29 11 40 2 11
10 42 19 68 9 26 18 61 21 78 2 16 11 53 19 82 8 29 23 88 34 132 11 44 27
100 35 125 8 25 21 77 29 115 8 39 38 160 66 270 71 281 69 271 86 360 8 44
24 109 34 145 9 36 34 137 54 225 21 88 50 216 66 285 53 223 91 393 105 463
l13 67 -862 0 -861 0 -49 -178 c-27 -97 -65 -233 -83 -302 -69 -250 -104 -361
-217 -696 -128 -380 -186 -543 -244 -684 -21 -52 -54 -136 -72 -187 -19 -50
-38 -90 -42 -87 -14 9 -93 172 -131 269 -19 50 -69 167 -112 260 -72 158 -212
486 -257 600 -11 28 -23 55 -27 60 -9 12 -42 98 -117 305 -31 85 -69 189 -84
230 -15 41 -44 122 -65 180 -21 58 -41 110 -46 116 -5 6 -13 34 -20 62 l-11
52 -880 0 -880 0 6 -27z"/>
</g>
</svg>
